<?xml version="1.0" encoding="UTF-8" standalone="no"?>
<!-- Created with Inkscape (http://www.inkscape.org/) -->

<svg
   width="1920"
   height="1920"
   viewBox="0 0 507.99999 508"
   version="1.1"
   id="svg1"
   xmlns="http://www.w3.org/2000/svg"
   xmlns:svg="http://www.w3.org/2000/svg">
  <defs
     id="defs1" />
  <g
     id="layer1">
    <g
       id="g7"
       transform="translate(-3.499995,29)">
      <path
         style="fill:#aa00ff;fill-opacity:1;stroke-width:0.264583"
         d="M 19.99999,399.99999 199.99999,50 h 20 a 50,50 45 0 1 50,50 V 340 H 240 a 20.000006,20.000006 44.999999 0 1 -20,-20 l -1e-5,-200 -149.999999,279.99999 z"
         id="path5" />
      <path
         style="fill:#000000;fill-opacity:1;stroke-width:0.264583"
         d="M 96.240703,388.03863 196.12301,196.59755 A 7.3556091,7.3556091 13.776406 0 1 209.99999,200 V 329.99998 A 20.000015,20.000015 45 0 0 230,350 h 140 c 99.99999,2e-5 100,-250 10e-6,-250 h -20 a 9.9999969,9.9999969 135 0 0 -10,10 v 220 a 10,10 135 0 1 -10,10 H 290 V 60.000006 A 10.000006,10.000006 135 0 1 300.00001,50 H 420 c 100,0 100,350 0,350 l -316.5085,-10e-6 a 8.1783414,8.1783414 58.776407 0 1 -7.250797,-11.96136 z"
         id="path6" />
    </g>
  </g>
</svg>
